<?xml version="1.0" encoding="utf-8"?>
<!-- Generator: Adobe Illustrator 19.0.0, SVG Export Plug-In . SVG Version: 6.00 Build 0)  -->
<svg version="1.1" id="Laag_1" xmlns="http://www.w3.org/2000/svg" xmlns:xlink="http://www.w3.org/1999/xlink" x="0px" y="0px"
	 viewBox="-109 232.9 377 376" style="enable-background:new -109 232.9 377 376;" xml:space="preserve">
<style type="text/css">
	.st0{fill:#7BC506;}
	.st1{fill:#FFFFFF;}
</style>
<path class="st0" d="M236.9,325.2c0,12,0,24,0,36c-1.4,0-3,0.5-4.3,0c-57.6-20.1-113.2-13.1-168.3,10.4
	c-47.6,20.2-95.3,14.3-142.3-3.7c0-11.3,0-22.5,0-33.8c3.3,0.6,6.5,0.8,9.6,1.8c49,15.5,97.3,14.5,145-5.4c12-5,24.4-9.7,37.1-13
	C155.5,306.9,196.8,308.1,236.9,325.2z"/>
<path class="st0" d="M-77.9,480.4c52.8,19.2,105.4,19.6,157.3-3.2c44-19.4,89.2-23.7,135.9-12.2c7.4,1.8,14.5,5.7,21.6,8.6
	c0,12,0,24,0,36c-1.8-0.3-3.8-0.3-5.4-0.9c-51.9-18.2-103.6-16.2-153.4,5.7c-52.4,23.1-103.8,20.8-156,2
	C-77.9,504.4-77.9,492.3-77.9,480.4z"/>
<path class="st0" d="M236.9,435.4c-59.2-21.3-116.6-15.1-173.6,9.5c-45.1,19.5-90.8,13.5-136-1.3c-1.8-0.6-3.5-0.9-5.3-1.4
	c0-12,0-24,0-36c26.2,8.9,149,0,161.3-5.3c50.7-21.6,101.9-22.4,153.5-3.8C236.9,409.9,236.9,422.6,236.9,435.4z"/>
<path class="st1" d="M236.9,397.1c-51.7-18.6-102.8-17.9-153.5,3.8c-12.3,5.3-25.1,9.4-37.6,14.1c-3,0.7-6.1,1.3-9.1,2
	c-8.2,1.1-16.4,2.2-24.6,3.2c-3,0.1-6,0.1-9,0.2c-27.7-0.3-54.7-5.3-80.9-14.2c0-12.7,0-25.5,0-38.2c47,18,94.7,23.9,142.2,3.7
	c55.2-23.5,110.7-30.5,168.3-10.4c1.3,0.4,2.8,0,4.3,0C236.9,373.1,236.9,385.2,236.9,397.1z"/>
</svg>
