<?xml version="1.0" encoding="utf-8"?>
<!-- Generator: Adobe Illustrator 19.0.0, SVG Export Plug-In . SVG Version: 6.00 Build 0)  -->
<svg version="1.1" id="Laag_1" xmlns="http://www.w3.org/2000/svg" xmlns:xlink="http://www.w3.org/1999/xlink" x="0px" y="0px"
	 viewBox="-109 232.9 377 376" style="enable-background:new -109 232.9 377 376;" xml:space="preserve">
<style type="text/css">
	.st0{fill:#79C501;}
	.st1{fill:none;}
	.st2{fill:none;stroke:#FFFFFF;stroke-width:2;stroke-miterlimit:10;}
</style>
<g id="layer1">
	<path class="st0" d="M56.3,607.5c-4.7-0.5-13.7-2.1-20-3.5c-55.7-12.5-101.3-48.9-126.1-100.7c-21.5-44.7-24.9-97-9.4-143.7
		c6.5-19.8,18.6-41.7,32.1-58.2c8.1-10,25.6-26.3,36.4-34.1c12.1-8.6,35.3-20.3,49.7-25c40.1-13.1,81.6-12.9,121.5,0.3
		c59.4,19.8,105.5,69.1,121.3,129.8c4.4,17.3,5.8,28.4,5.8,48.2c0,21.3-2.2,36.7-8,55.7C233.5,562.6,148.9,617.1,56.3,607.5z
		 M109.2,576.1c19.9-3.8,43.6-13.7,61.3-25.7c12.4-8.4,32.4-28.4,40.6-40.8c12.1-18.2,21-39.6,24.8-60c2.8-14.7,2.5-46-0.6-60
		c-6.9-32-20.7-57.8-43.1-80c-6.3-6.3-15.4-14.3-20.3-17.7c-17.8-12.5-40.2-22.1-62-26.5c-14.4-2.9-43.9-3.2-58.2-0.5
		c-34.1,6.4-62.4,21.2-86.1,45.1c-19.4,19.7-33.1,44.2-39.8,71.3c-3.9,15.8-5,26.5-4.3,45.1c1.5,42.3,16.6,77.2,46.1,106.7
		c23.7,23.7,50.2,37.4,84.1,43.6C64.3,579,95.8,578.7,109.2,576.1z"/>
</g>
<circle class="st1" cx="79.7" cy="421" r="188.2"/>
<circle class="st2" cx="79.4" cy="421" r="188.2"/>
<circle class="st2" cx="79.4" cy="421" r="158.4"/>
</svg>
