<?xml version="1.0" encoding="utf-8"?>
<!-- Generator: Adobe Illustrator 19.0.0, SVG Export Plug-In . SVG Version: 6.00 Build 0)  -->
<svg version="1.1" id="Laag_1" xmlns="http://www.w3.org/2000/svg" xmlns:xlink="http://www.w3.org/1999/xlink" x="0px" y="0px"
	 viewBox="-109 232.9 377 376" style="enable-background:new -109 232.9 377 376;" xml:space="preserve">
<style type="text/css">
	.st0{fill:#79C501;}
	.st1{fill:none;}
	.st2{fill:none;stroke:#FFFFFF;stroke-width:2;stroke-miterlimit:10;}
</style>
<g id="layer1">
	<path class="st0" d="M56.1,607.8c-4.7-0.5-13.7-2.1-20-3.5C-19.6,591.8-65.2,555.4-90,503.6c-21.5-44.7-24.9-97-9.4-143.7
		c6.5-19.8,18.6-41.7,32.1-58.2c8.1-10,25.6-26.3,36.4-34.1c12.1-8.6,35.3-20.3,49.7-25c40.1-13.1,81.6-12.9,121.5,0.3
		c59.4,19.8,105.5,69.1,121.3,129.8c4.4,17.3,5.8,28.4,5.8,48.2c0,21.3-2.2,36.7-8,55.7C233.3,562.9,148.7,617.4,56.1,607.8z
		 M109,576.4c19.9-3.8,43.6-13.7,61.3-25.7c12.4-8.4,32.4-28.4,40.6-40.8c12.1-18.2,21-39.6,24.8-60c2.8-14.7,2.5-46-0.6-60
		c-6.9-32-20.7-57.8-43.1-80c-6.3-6.3-15.4-14.3-20.3-17.7c-17.8-12.5-40.2-22.1-62-26.5c-14.4-2.9-43.9-3.2-58.2-0.5
		c-34.1,6.4-62.4,21.2-86.1,45.1C-54,330-67.7,354.5-74.4,381.6c-3.9,15.8-5,26.5-4.3,45.1c1.5,42.3,16.6,77.2,46.1,106.7
		c23.7,23.7,50.2,37.4,84.1,43.6C64.1,579.3,95.6,579,109,576.4z"/>
	<path class="st0" d="M65.5,552.3c-15.9-2.4-30.6-6.9-43-13.1c-18.2-9.2-36.9-25.4-48.2-42c-5.9-8.6-12.8-21.1-12.1-21.9
		c0.3-0.2,7.4,1,15.9,2.7c13.7,2.8,16.6,3,26.4,2.5c26.1-1.5,52.2-6.6,81.1-15.9c23-7.5,35.3-10.2,52.9-11.9
		c20.3-1.9,40.1,0.8,58.3,7.8c7.2,2.8,7.3,3,6.8,5.9c-0.4,1.6-3.1,8.1-6.2,14.3c-4.5,9.3-5.8,11.2-7.2,10.7c-13-5.5-28.4-8-43.6-7.2
		c-14.7,0.9-27.9,4-57,13.6c-26.9,8.9-33,10.6-46.5,13l-9.3,1.7l3.8,2.5c5.9,3.9,16.9,7.9,27.4,10.1c12.4,2.6,31.5,2.2,37.2-0.7
		c4.2-2.1,4.6-3,6.2-12.5c0.8-4.8,1.5-6.4,2.6-6.3c6.9,1.1,57.4,11.3,57.8,11.8c1.8,1.7-16.6,15.4-29.3,21.7
		c-18.2,9.2-33.2,12.8-55,13.3C75.7,552.6,67.2,552.5,65.5,552.3z"/>
	<path class="st0" d="M-7.3,452.3c-11.3-1.7-27.6-5.6-34.8-8.3c-5.5-2.1-5.6-2.2-6.3-6.8c-0.3-2.5-0.6-9.1-0.6-14.5
		c0-8.1,0.3-9.9,1.4-9.5c15.4,5.9,35.5,9.8,54.8,10.4c27,0.9,44.4-2.3,73.8-13.5c31.8-12.1,39.5-13.7,67.5-13.7
		c18.9,0,23.6,0.4,33.5,2.3c15.4,3.1,21.4,5,25.3,8.3c3.1,2.6,3.2,3,3.6,11.4c0.2,4.7,0,11.1-0.4,14.2c-0.6,4.6-0.9,5.3-2.3,4.7
		c-5.5-2.3-22.3-6.8-32.2-8.5c-8.1-1.4-16-2-27-2.1c-25.6,0-46.2,4.2-74.2,15.1c-17.8,6.9-23.1,8.5-35.2,10.6
		C28.7,454.3,4.9,454.2-7.3,452.3z"/>
	<path class="st0" d="M-4.8,395.9c-13.5-1.7-38.2-9.2-38.2-11.6c0-2.7,9.4-24.8,11.6-27.3c0.1-0.1,3,0.7,6.4,1.8
		c10.5,3.7,19.6,5.1,32,5.1c18.2,0,32-3.1,68.9-15.5c20.5-6.9,33.9-10.6,45.9-12.5c3.9-0.6,7.2-1.4,7.2-1.7
		c0-1.2-17.8-8.5-25.6-10.5c-13.8-3.4-43.3-2.6-48.1,1.4c-0.6,0.5-2.4,4.5-3.8,8.9c-2.4,7.1-2.9,7.8-4.8,7.4
		c-1.2-0.3-14.3-2.8-29.2-5.6c-14.8-2.7-27.1-5.2-27.4-5.4c-1.5-1.6,21.1-18.1,32.4-23.7c34.4-17.3,75.6-18.3,111.1-2.7
		c19.4,8.5,39.4,24.7,51.8,41.8c4.9,6.8,16.5,27.3,16.6,29.2c0,0.4-2.7-0.2-6.1-1.2c-16.6-5.2-25.4-6.3-47.9-6.3
		c-19.6,0-22.7,0.2-34.5,2.7c-12,2.6-32.5,9.1-57,18.2c-5.5,2-14,4.5-19,5.6C26.9,396.2,5.6,397.2-4.8,395.9z"/>
</g>
<circle class="st1" cx="79.5" cy="421.3" r="188.2"/>
<circle class="st2" cx="79.2" cy="421.3" r="188.2"/>
<circle class="st2" cx="79.2" cy="421.3" r="158.4"/>
<circle class="st2" cx="81" cy="422.1" r="130.4"/>
</svg>
