<?xml version="1.0" encoding="utf-8"?>
<!-- Generator: Adobe Illustrator 19.0.0, SVG Export Plug-In . SVG Version: 6.00 Build 0)  -->
<svg version="1.1" id="Laag_1" xmlns="http://www.w3.org/2000/svg" xmlns:xlink="http://www.w3.org/1999/xlink" x="0px" y="0px"
	 viewBox="-109 232.9 377 376" style="enable-background:new -109 232.9 377 376;" xml:space="preserve">
<style type="text/css">
	.st0{fill:#7AC503;}
	.st1{fill:#90CF2E;}
</style>
<g>
	<g>
		<path class="st0" d="M98.8,264.2c18.5,0,37,0,55.4,0c0,67.3,0,134.5,0,204.1c18.8,0,37.1,0,55.5,0c-1,1.7-1.5,3.8-2.9,5.1
			c-34.3,32.1-68.6,64-102.9,96c-1.5-0.1-3.1-0.2-4.6-0.2c-0.1-5.9-0.3-11.7-0.3-17.7C99,455.8,98.9,359.9,98.8,264.2z"/>
		<path class="st0" d="M104,569.4c-1.5-0.1-3.1-0.2-4.6-0.2c0,1.8-0.1,3.5-0.1,5.3C100.9,572.8,102.5,571.1,104,569.4z"/>
		<path class="st1" d="M104.3,578.1"/>
		<path class="st0" d="M59.6,269c0-1.8,0.1-3.5,0.1-5.3c-1.5,1.7-3.2,3.4-4.7,5.1C56.5,268.9,58,268.9,59.6,269z"/>
		<path class="st0" d="M60.2,574.1c-18.5,0-37,0-55.4,0c0-67.3,0-134.5,0-204.1c-18.8,0-37.1,0-55.5,0c1-1.7,1.5-3.8,2.9-5.1
			c34.3-32.1,68.6-64,102.9-96c1.5,0.1,3.1,0.2,4.6,0.2c0.1,5.9,0.3,11.7,0.3,17.7C60,382.4,60.1,478.2,60.2,574.1z"/>
	</g>
</g>
</svg>
